solid OpenSCAD_Model
  facet normal -1 0 0
    outer loop
      vertex 0 75 0
      vertex 0 3.75 2.5
      vertex 0 71.25 2.5
    endloop
  endfacet
  facet normal -1 0 -0
    outer loop
      vertex 0 3.75 2.5
      vertex 0 75 0
      vertex 0 0 0
    endloop
  endfacet
  facet normal -1 0 0
    outer loop
      vertex 0 71.25 2.5
      vertex 0 38.75 72.5
      vertex 0 75 0
    endloop
  endfacet
  facet normal -1 0 -0
    outer loop
      vertex 0 38.75 72.5
      vertex 0 71.25 2.5
      vertex 0 37.5 70
    endloop
  endfacet
  facet normal -1 0 0
    outer loop
      vertex 0 38.75 72.5
      vertex 0 65 130
      vertex 0 67.5 130
    endloop
  endfacet
  facet normal -1 0 0
    outer loop
      vertex 0 15.75 31.5
      vertex 0 38.75 72.5
      vertex 0 37.5 70
    endloop
  endfacet
  facet normal -1 -0 0
    outer loop
      vertex 0 38.75 72.5
      vertex 0 15.75 31.5
      vertex 0 65 130
    endloop
  endfacet
  facet normal -1 0 0
    outer loop
      vertex 0 3.75 2.5
      vertex 0 15.75 31.5
      vertex 0 37.5 70
    endloop
  endfacet
  facet normal -1 0 0
    outer loop
      vertex 0 15.75 31.5
      vertex 0 3.75 2.5
      vertex 0 14.5 29
    endloop
  endfacet
  facet normal -1 0 0
    outer loop
      vertex 0 14.5 29
      vertex 0 3.75 2.5
      vertex 0 0 0
    endloop
  endfacet
  facet normal -1 0 0
    outer loop
      vertex 0 6.5 45
      vertex 0 15.75 31.5
      vertex 0 14.5 29
    endloop
  endfacet
  facet normal -1 0 0
    outer loop
      vertex 0 9 45
      vertex 0 6.5 45
      vertex 0 9 50
    endloop
  endfacet
  facet normal -1 0 0
    outer loop
      vertex 0 15.75 31.5
      vertex 0 6.5 45
      vertex 0 9 45
    endloop
  endfacet
  facet normal -1 -0 0
    outer loop
      vertex 0 11.5 50
      vertex 0 9 45
      vertex 0 9 50
    endloop
  endfacet
  facet normal -0 0 1
    outer loop
      vertex 0 67.5 130
      vertex 60 65 130
      vertex 60 67.5 130
    endloop
  endfacet
  facet normal 0 0 1
    outer loop
      vertex 60 65 130
      vertex 0 67.5 130
      vertex 0 65 130
    endloop
  endfacet
  facet normal 1 -0 0
    outer loop
      vertex 60 9 50
      vertex 60 9 45
      vertex 60 11.5 50
    endloop
  endfacet
  facet normal 1 0 -0
    outer loop
      vertex 60 9 45
      vertex 60 9 50
      vertex 60 6.5 45
    endloop
  endfacet
  facet normal 1 -0 0
    outer loop
      vertex 60 6.5 45
      vertex 60 15.75 31.5
      vertex 60 9 45
    endloop
  endfacet
  facet normal 1 0 0
    outer loop
      vertex 60 15.75 31.5
      vertex 60 6.5 45
      vertex 60 14.5 29
    endloop
  endfacet
  facet normal 1 -0 0
    outer loop
      vertex 60 65 130
      vertex 60 38.75 72.5
      vertex 60 67.5 130
    endloop
  endfacet
  facet normal 1 0 0
    outer loop
      vertex 60 15.75 31.5
      vertex 60 38.75 72.5
      vertex 60 65 130
    endloop
  endfacet
  facet normal 1 0 0
    outer loop
      vertex 60 38.75 72.5
      vertex 60 15.75 31.5
      vertex 60 37.5 70
    endloop
  endfacet
  facet normal 1 0 0
    outer loop
      vertex 60 3.75 2.5
      vertex 60 15.75 31.5
      vertex 60 14.5 29
    endloop
  endfacet
  facet normal 1 -0 0
    outer loop
      vertex 60 15.75 31.5
      vertex 60 3.75 2.5
      vertex 60 37.5 70
    endloop
  endfacet
  facet normal 1 0 -0
    outer loop
      vertex 60 3.75 2.5
      vertex 60 14.5 29
      vertex 60 0 0
    endloop
  endfacet
  facet normal 1 0 0
    outer loop
      vertex 60 38.75 72.5
      vertex 60 71.25 2.5
      vertex 60 75 0
    endloop
  endfacet
  facet normal 1 0 0
    outer loop
      vertex 60 71.25 2.5
      vertex 60 38.75 72.5
      vertex 60 37.5 70
    endloop
  endfacet
  facet normal 1 -0 0
    outer loop
      vertex 60 3.75 2.5
      vertex 60 75 0
      vertex 60 71.25 2.5
    endloop
  endfacet
  facet normal 1 0 0
    outer loop
      vertex 60 75 0
      vertex 60 3.75 2.5
      vertex 60 0 0
    endloop
  endfacet
  facet normal 0 0.894427 -0.447214
    outer loop
      vertex 60 38.75 72.5
      vertex 0 67.5 130
      vertex 60 67.5 130
    endloop
  endfacet
  facet normal 0 0.894427 -0.447214
    outer loop
      vertex 0 67.5 130
      vertex 60 38.75 72.5
      vertex 0 38.75 72.5
    endloop
  endfacet
  facet normal 0 0.894427 -0.447214
    outer loop
      vertex 60 3.75 2.5
      vertex 0 37.5 70
      vertex 60 37.5 70
    endloop
  endfacet
  facet normal 0 0.894427 -0.447214
    outer loop
      vertex 0 37.5 70
      vertex 60 3.75 2.5
      vertex 0 3.75 2.5
    endloop
  endfacet
  facet normal 0 0 -1
    outer loop
      vertex 0 0 0
      vertex 60 75 0
      vertex 60 0 0
    endloop
  endfacet
  facet normal -0 0 -1
    outer loop
      vertex 60 75 0
      vertex 0 0 0
      vertex 0 75 0
    endloop
  endfacet
  facet normal 0 -0.894427 0.447214
    outer loop
      vertex 0 0 0
      vertex 20 14.5 29
      vertex 0 14.5 29
    endloop
  endfacet
  facet normal 0 -0.894427 0.447214
    outer loop
      vertex 20 14.5 29
      vertex 0 0 0
      vertex 40 14.5 29
    endloop
  endfacet
  facet normal 0 -0.894427 0.447214
    outer loop
      vertex 60 0 0
      vertex 40 14.5 29
      vertex 0 0 0
    endloop
  endfacet
  facet normal 0 -0.894427 0.447214
    outer loop
      vertex 40 14.5 29
      vertex 60 0 0
      vertex 60 14.5 29
    endloop
  endfacet
  facet normal 0 -0.894427 0.447214
    outer loop
      vertex 20 14.5 29
      vertex 40 15.75 31.5
      vertex 20 15.75 31.5
    endloop
  endfacet
  facet normal 0 -0.894427 0.447214
    outer loop
      vertex 40 15.75 31.5
      vertex 20 14.5 29
      vertex 40 14.5 29
    endloop
  endfacet
  facet normal 0 -0.894427 0.447214
    outer loop
      vertex 20 15.75 31.5
      vertex 0 65 130
      vertex 0 15.75 31.5
    endloop
  endfacet
  facet normal 0 -0.894427 0.447214
    outer loop
      vertex 0 65 130
      vertex 20 15.75 31.5
      vertex 60 65 130
    endloop
  endfacet
  facet normal 0 -0.894427 0.447214
    outer loop
      vertex 40 15.75 31.5
      vertex 60 65 130
      vertex 20 15.75 31.5
    endloop
  endfacet
  facet normal 0 -0.894427 0.447214
    outer loop
      vertex 60 65 130
      vertex 40 15.75 31.5
      vertex 60 15.75 31.5
    endloop
  endfacet
  facet normal -0 0 1
    outer loop
      vertex 0 11.5 50
      vertex 20 9 50
      vertex 20 11.5 50
    endloop
  endfacet
  facet normal 0 0 1
    outer loop
      vertex 20 9 50
      vertex 0 11.5 50
      vertex 0 9 50
    endloop
  endfacet
  facet normal 1 -0 0
    outer loop
      vertex 20 9 50
      vertex 20 9 45
      vertex 20 11.5 50
    endloop
  endfacet
  facet normal 1 0 -0
    outer loop
      vertex 20 9 45
      vertex 20 9 50
      vertex 20 6.5 45
    endloop
  endfacet
  facet normal 1 -0 0
    outer loop
      vertex 20 6.5 45
      vertex 20 15.75 31.5
      vertex 20 9 45
    endloop
  endfacet
  facet normal 1 0 0
    outer loop
      vertex 20 15.75 31.5
      vertex 20 6.5 45
      vertex 20 14.5 29
    endloop
  endfacet
  facet normal 0 0.894427 -0.447214
    outer loop
      vertex 20 9 45
      vertex 0 11.5 50
      vertex 20 11.5 50
    endloop
  endfacet
  facet normal 0 0.894427 -0.447214
    outer loop
      vertex 0 11.5 50
      vertex 20 9 45
      vertex 0 9 45
    endloop
  endfacet
  facet normal 0 -0.894427 0.447214
    outer loop
      vertex 0 6.5 45
      vertex 20 9 50
      vertex 0 9 50
    endloop
  endfacet
  facet normal 0 -0.894427 0.447214
    outer loop
      vertex 20 9 50
      vertex 0 6.5 45
      vertex 20 6.5 45
    endloop
  endfacet
  facet normal -0 0 1
    outer loop
      vertex 40 11.5 50
      vertex 60 9 50
      vertex 60 11.5 50
    endloop
  endfacet
  facet normal 0 0 1
    outer loop
      vertex 60 9 50
      vertex 40 11.5 50
      vertex 40 9 50
    endloop
  endfacet
  facet normal -1 0 0
    outer loop
      vertex 40 6.5 45
      vertex 40 15.75 31.5
      vertex 40 14.5 29
    endloop
  endfacet
  facet normal -1 0 0
    outer loop
      vertex 40 9 45
      vertex 40 6.5 45
      vertex 40 9 50
    endloop
  endfacet
  facet normal -1 0 0
    outer loop
      vertex 40 15.75 31.5
      vertex 40 6.5 45
      vertex 40 9 45
    endloop
  endfacet
  facet normal -1 -0 0
    outer loop
      vertex 40 11.5 50
      vertex 40 9 45
      vertex 40 9 50
    endloop
  endfacet
  facet normal 0 0.894427 -0.447214
    outer loop
      vertex 60 9 45
      vertex 40 11.5 50
      vertex 60 11.5 50
    endloop
  endfacet
  facet normal 0 0.894427 -0.447214
    outer loop
      vertex 40 11.5 50
      vertex 60 9 45
      vertex 40 9 45
    endloop
  endfacet
  facet normal 0 -0.894427 0.447214
    outer loop
      vertex 40 6.5 45
      vertex 60 9 50
      vertex 40 9 50
    endloop
  endfacet
  facet normal 0 -0.894427 0.447214
    outer loop
      vertex 60 9 50
      vertex 40 6.5 45
      vertex 60 6.5 45
    endloop
  endfacet
  facet normal 0 -0.894427 -0.447214
    outer loop
      vertex 0 71.25 2.5
      vertex 60 37.5 70
      vertex 0 37.5 70
    endloop
  endfacet
  facet normal 0 -0.894427 -0.447214
    outer loop
      vertex 60 37.5 70
      vertex 0 71.25 2.5
      vertex 60 71.25 2.5
    endloop
  endfacet
  facet normal 0 0.894427 0.447214
    outer loop
      vertex 60 75 0
      vertex 0 38.75 72.5
      vertex 60 38.75 72.5
    endloop
  endfacet
  facet normal 0 0.894427 0.447214
    outer loop
      vertex 0 38.75 72.5
      vertex 60 75 0
      vertex 0 75 0
    endloop
  endfacet
  facet normal 0 0.894427 0.447214
    outer loop
      vertex 20 15.75 31.5
      vertex 0 9 45
      vertex 20 9 45
    endloop
  endfacet
  facet normal 0 0.894427 0.447214
    outer loop
      vertex 0 9 45
      vertex 20 15.75 31.5
      vertex 0 15.75 31.5
    endloop
  endfacet
  facet normal 0 -0.894427 -0.447214
    outer loop
      vertex 0 14.5 29
      vertex 20 6.5 45
      vertex 0 6.5 45
    endloop
  endfacet
  facet normal 0 -0.894427 -0.447214
    outer loop
      vertex 20 6.5 45
      vertex 0 14.5 29
      vertex 20 14.5 29
    endloop
  endfacet
  facet normal 0 0.894427 0.447214
    outer loop
      vertex 60 15.75 31.5
      vertex 40 9 45
      vertex 60 9 45
    endloop
  endfacet
  facet normal 0 0.894427 0.447214
    outer loop
      vertex 40 9 45
      vertex 60 15.75 31.5
      vertex 40 15.75 31.5
    endloop
  endfacet
  facet normal 0 -0.894427 -0.447214
    outer loop
      vertex 40 14.5 29
      vertex 60 6.5 45
      vertex 40 6.5 45
    endloop
  endfacet
  facet normal 0 -0.894427 -0.447214
    outer loop
      vertex 60 6.5 45
      vertex 40 14.5 29
      vertex 60 14.5 29
    endloop
  endfacet
  facet normal -0 0 1
    outer loop
      vertex 0 71.25 2.5
      vertex 60 3.75 2.5
      vertex 60 71.25 2.5
    endloop
  endfacet
  facet normal 0 0 1
    outer loop
      vertex 60 3.75 2.5
      vertex 0 71.25 2.5
      vertex 0 3.75 2.5
    endloop
  endfacet
endsolid OpenSCAD_Model
